<svg width="100" height="45" viewBox="0 0 100 45" fill="none" xmlns="http://www.w3.org/2000/svg">
<path d="M57.9414 35.308C56.6534 35.308 55.468 35.0933 54.3854 34.664C53.3214 34.2347 52.472 33.6093 51.8374 32.788C51.2214 31.948 50.9134 30.9587 50.9134 29.82C50.9134 28.0467 51.4454 26.516 52.5094 25.228C52.8267 24.836 53.172 24.4627 53.5454 24.108C53.9187 23.7533 54.2174 23.576 54.4414 23.576C54.796 23.576 54.9734 23.7347 54.9734 24.052C54.9734 24.2013 54.936 24.332 54.8614 24.444C53.928 25.284 53.256 26.096 52.8454 26.88C52.4534 27.664 52.2574 28.5133 52.2574 29.428C52.2574 30.996 52.808 32.1627 53.9094 32.928C55.0294 33.6933 56.42 34.076 58.0814 34.076C59.1454 34.076 60.0787 33.8053 60.8814 33.264C61.7027 32.704 62.328 31.9573 62.7574 31.024C63.2054 30.0907 63.4294 29.0827 63.4294 28C63.4294 26.3573 62.6734 23.7907 61.1614 20.3C59.6494 16.772 58.8934 14.3173 58.8934 12.936C58.8934 11.4987 59.2387 10.304 59.9294 9.352C60.62 8.4 61.6094 7.924 62.8974 7.924C63.8867 7.924 64.708 8.176 65.3614 8.68C66.0334 9.16533 66.528 9.72533 66.8454 10.36C67.1627 10.976 67.3214 11.48 67.3214 11.872C67.3214 12.0587 67.2374 12.2267 67.0694 12.376C66.92 12.5067 66.7614 12.572 66.5934 12.572C66.3134 12.572 66.1454 12.404 66.0894 12.068C65.9587 11.2093 65.604 10.5 65.0254 9.94C64.4467 9.38 63.7374 9.1 62.8974 9.1C62.0574 9.1 61.404 9.39866 60.9374 9.996C60.4707 10.5747 60.2374 11.3027 60.2374 12.18C60.2374 13.412 60.424 14.616 60.7974 15.792C61.1707 16.9493 61.74 18.4147 62.5054 20.188C63.252 21.8867 63.812 23.3333 64.1854 24.528C64.5774 25.704 64.7734 26.908 64.7734 28.14C64.7734 29.3347 64.54 30.4827 64.0734 31.584C63.6067 32.6667 62.86 33.5627 61.8334 34.272C60.8067 34.9627 59.5094 35.308 57.9414 35.308ZM78.0845 35.056C77.6552 35.056 77.2539 34.832 76.8805 34.384C76.5259 33.9173 76.3485 33.4227 76.3485 32.9C76.3485 31.7427 76.6565 29.7827 77.2725 27.02C76.8059 28.028 76.1992 29.064 75.4525 30.128C74.7245 31.1733 74.0059 32.0973 73.2965 32.9C72.5872 33.7027 72.0645 34.2253 71.7285 34.468C71.2619 34.8227 70.7485 35 70.1885 35C69.1245 35 68.5925 34.328 68.5925 32.984C68.5925 31.6773 69.0872 30.0533 70.0765 28.112C71.0659 26.152 72.2419 24.4533 73.6045 23.016C74.9672 21.5973 76.0685 20.888 76.9085 20.888C77.7672 20.888 78.2525 21.2613 78.3645 22.008C78.4205 22.232 78.4485 22.4747 78.4485 22.736C78.5419 22.68 78.6445 22.652 78.7565 22.652C79.1859 22.652 79.4005 22.8573 79.4005 23.268V23.38L79.0645 24.612C78.8032 25.5453 78.5325 26.9267 78.2525 28.756C77.9725 30.5853 77.8325 32.1067 77.8325 33.32L78.1125 33.488C78.5605 33.768 78.7845 34.048 78.7845 34.328C78.7845 34.5147 78.7192 34.6827 78.5885 34.832C78.4579 34.9813 78.2899 35.056 78.0845 35.056ZM70.4125 33.544C70.6179 33.544 70.7859 33.4787 70.9165 33.348C72.8205 31.724 74.5099 29.4747 75.9845 26.6C76.6192 25.4053 77.0112 24.6213 77.1605 24.248C77.3285 23.8747 77.4125 23.5107 77.4125 23.156C77.4125 22.9693 77.3659 22.8013 77.2725 22.652C77.1792 22.5027 77.0579 22.428 76.9085 22.428C76.7219 22.428 76.4792 22.512 76.1805 22.68C75.4339 23.072 74.5472 23.9027 73.5205 25.172C72.5125 26.4413 71.6819 27.7853 71.0285 29.204C70.3379 30.6413 69.9925 31.92 69.9925 33.04C69.9925 33.376 70.1325 33.544 70.4125 33.544ZM82.5147 35.392C82.328 35.392 82.1693 35.3547 82.0387 35.28C81.908 35.2053 81.8427 35.112 81.8427 35C82.0107 34.4773 82.1413 33.936 82.2347 33.376C82.3653 32.6853 82.5147 32.1067 82.6827 31.64C83.4107 28.7653 84.0453 25.4893 84.5867 21.812L84.6707 21.336C84.6707 21.2053 84.8013 20.9907 85.0627 20.692C85.2307 20.6173 85.3707 20.58 85.4827 20.58C85.7253 20.58 85.8933 20.7387 85.9867 21.056V21.28C85.968 22.512 85.7627 23.9587 85.3707 25.62L84.6707 28.56L85.3427 27.104C86.3133 24.8267 87.2467 23.184 88.1427 22.176C88.9827 21.224 89.916 20.748 90.9427 20.748C91.484 20.748 91.932 20.972 92.2867 21.42C92.66 21.868 92.8467 22.4 92.8467 23.016V23.24C92.828 23.296 92.8187 23.3707 92.8187 23.464C93.8267 22.232 94.8813 21.392 95.9827 20.944C96.3373 20.7947 96.6827 20.72 97.0187 20.72C97.3733 20.72 97.7 20.888 97.9987 21.224C98.2973 21.56 98.4467 21.9893 98.4467 22.512C98.4467 23.5387 98.2413 24.7613 97.8307 26.18C97.5693 27.0387 97.364 27.6827 97.2147 28.112C96.3187 30.7627 95.824 32.5547 95.7307 33.488C95.712 33.656 95.684 33.8707 95.6467 34.132C95.6093 34.3747 95.5813 34.524 95.5627 34.58C95.4133 35.028 95.1613 35.252 94.8067 35.252C94.3773 35.252 94.1627 34.7947 94.1627 33.88C94.1627 33.32 94.2653 32.704 94.4707 32.032C94.6387 31.528 94.816 30.9587 95.0027 30.324C95.0587 30.1 95.236 29.5587 95.5347 28.7C95.964 27.4867 96.3 26.46 96.5427 25.62C96.7853 24.78 96.9533 23.856 97.0467 22.848C97.0467 22.4933 97 22.2787 96.9067 22.204C96.832 22.1107 96.664 22.064 96.4027 22.064C96.1227 22.064 95.7307 22.232 95.2267 22.568C94.7413 22.904 94.256 23.352 93.7707 23.912C92.6507 25.1813 91.792 26.824 91.1947 28.84C91.008 29.5307 90.8493 30.0253 90.7187 30.324C90.1027 32.1907 89.72 33.404 89.5707 33.964C89.4213 34.5613 89.3 34.916 89.2067 35.028C89.0947 35.1773 88.9267 35.252 88.7027 35.252C88.2733 35.252 88.04 35.0187 88.0027 34.552C88.1893 33.2453 88.4507 32.088 88.7867 31.08C89.1227 30.072 89.5427 28.9427 90.0467 27.692C90.364 26.8707 90.6347 26.0493 90.8587 25.228C91.1013 24.388 91.2227 23.6787 91.2227 23.1C91.2227 22.4653 91.0267 22.148 90.6347 22.148C89.9813 22.148 89.2347 22.764 88.3947 23.996C87.5547 25.2093 86.78 26.5627 86.0707 28.056C85.3613 29.5307 84.904 30.576 84.6987 31.192C84.568 31.5467 84.4653 31.836 84.3907 32.06C84.316 32.2653 84.26 32.4333 84.2227 32.564C83.6253 34.4493 83.056 35.392 82.5147 35.392Z" fill="#34353B"/>
<mask id="mask0" mask-type="alpha" maskUnits="userSpaceOnUse" x="0" y="0" width="45" height="45">
<circle cx="22.5" cy="22.5" r="22.5" fill="white"/>
</mask>
<g mask="url(#mask0)">
<circle cx="21.7703" cy="22.5" r="23.2297" fill="white"/>
<path d="M8.50873 30.7764C10.4465 30.7764 12.0175 28.9841 12.0175 26.7732C12.0175 24.5624 10.4465 22.7701 8.50873 22.7701C6.57091 22.7701 5 24.5624 5 26.7732C5 28.9841 6.57091 30.7764 8.50873 30.7764Z" fill="#FFB06B"/>
<path d="M36.4377 30.7764C38.3755 30.7764 39.9464 28.9841 39.9464 26.7732C39.9464 24.5624 38.3755 22.7701 36.4377 22.7701C34.4999 22.7701 32.929 24.5624 32.929 26.7732C32.929 28.9841 34.4999 30.7764 36.4377 30.7764Z" fill="#FFB06B"/>
<path d="M36.4235 19.1271C36.4235 13.2308 32.109 8.91597 22.4732 8.91597C12.8375 8.91597 8.52296 13.2305 8.52296 19.1271C8.52296 25.0236 7.5163 40.5559 22.4732 40.5559C37.4302 40.5559 36.4235 25.0236 36.4235 19.1271Z" fill="#FDCC9B"/>
<path d="M15.7089 21.7157C16.4229 22.0729 17.5695 20.5024 20.1942 21.8686C20.6727 22.1177 20.9581 19.7384 18.1449 19.7384C15.7089 19.7384 15.2773 21.5002 15.7089 21.7157Z" fill="#5A5ED1"/>
<path d="M29.2374 21.7157C28.5233 22.0729 27.3767 20.5024 24.7521 21.8686C24.2736 22.1177 23.9881 19.7384 26.8016 19.7384C29.2374 19.7384 29.6686 21.5002 29.2374 21.7157Z" fill="#5A5ED1"/>
<path d="M22.473 31.6321C20.9808 31.6321 20.082 30.5175 20.082 31.0567C20.082 31.5961 20.5136 32.6209 22.473 32.6209C24.4325 32.6209 24.8641 31.5961 24.8641 31.0567C24.8641 30.5173 23.965 31.6321 22.473 31.6321Z" fill="#FFB06B"/>
<path d="M22.4733 36.5907C21.9572 36.5907 21.6462 36.2052 21.6462 36.3918C21.6462 36.5785 21.7955 36.9327 22.4733 36.9327C23.1512 36.9327 23.3002 36.5785 23.3002 36.3918C23.3002 36.2052 22.9893 36.5907 22.4733 36.5907Z" fill="#FFB06B"/>
<path d="M22.4734 35.2166C20.1083 35.2166 18.6833 34.2535 18.6833 34.4977C18.6833 34.7418 19.3673 35.7022 22.4734 35.7022C25.5795 35.7022 26.2635 34.7418 26.2635 34.4977C26.2632 34.2535 24.8385 35.2166 22.4734 35.2166Z" fill="#FFB06B"/>
<path d="M33.9425 7.65782C33.9425 7.65782 28.7652 1.07825 18.0044 3.55904C7.24385 6.03959 6.43755 12.5115 6.76119 18.8081C7.08484 25.1048 7.94765 28.7988 8.96824 28.3423C9.98884 27.8856 9.45775 23.7293 9.56563 22.7701C9.67351 21.8109 10.6442 17.4731 17.1888 18.1204C23.7331 18.7677 29.2481 16.3945 29.2481 16.3945C29.2481 16.3945 31.4681 19.2007 32.929 19.7384C35.8485 20.8126 34.891 27.9751 36.0349 27.9751C37.1788 27.9751 42.7874 11.433 33.9425 7.65782Z" fill="#5A5ED1"/>
<path d="M17.3082 29.6111C19.2165 29.6111 20.7635 28.0641 20.7635 26.1558C20.7635 24.2474 19.2165 22.7004 17.3082 22.7004C15.3998 22.7004 13.8528 24.2474 13.8528 26.1558C13.8528 28.0641 15.3998 29.6111 17.3082 29.6111Z" fill="#D5D6FF"/>
<path d="M17.3082 22.7004C16.3602 22.7004 15.5022 23.0834 14.8779 23.7017L19.7623 28.5861C20.3807 27.9617 20.7636 27.1038 20.7636 26.1558C20.7636 24.2474 19.2167 22.7004 17.3082 22.7004Z" fill="white"/>
<path d="M27.6744 29.6111C29.5827 29.6111 31.1297 28.0641 31.1297 26.1558C31.1297 24.2474 29.5827 22.7004 27.6744 22.7004C25.766 22.7004 24.219 24.2474 24.219 26.1558C24.219 28.0641 25.766 29.6111 27.6744 29.6111Z" fill="#D5D6FF"/>
<path d="M27.6977 22.7004C26.7496 22.7004 25.8916 23.0834 25.2673 23.7017L30.1517 28.5861C30.7701 27.9617 31.153 27.1038 31.153 26.1558C31.153 24.2474 29.6061 22.7004 27.6977 22.7004Z" fill="white"/>
<path d="M24.2428 27.0196C23.7653 27.0196 23.379 26.6333 23.379 26.1558C23.379 25.6791 22.9917 25.2919 22.5151 25.2919C22.0385 25.2919 21.6513 25.6791 21.6513 26.1558C21.6513 26.6333 21.2649 27.0196 20.7874 27.0196C20.3099 27.0196 19.9236 26.6333 19.9236 26.1558C19.9236 24.7268 21.0861 23.5642 22.5151 23.5642C23.9441 23.5642 25.1067 24.7268 25.1067 26.1558C25.1067 26.6333 24.7203 27.0196 24.2428 27.0196Z" fill="#34353B"/>
<path d="M13.8764 26.1558H9.53352C9.05603 26.1558 8.66968 25.7694 8.66968 25.2919C8.66968 24.8144 9.05603 24.4281 9.53352 24.4281H13.8764C14.3539 24.4281 14.7402 24.8144 14.7402 25.2919C14.7402 25.7694 14.3539 26.1558 13.8764 26.1558Z" fill="#34353B"/>
<path d="M35.4487 26.1557H31.1532C30.6757 26.1557 30.2893 25.7694 30.2893 25.2919C30.2893 24.8144 30.6757 24.4281 31.1532 24.4281H35.4487C35.9262 24.4281 36.3126 24.8144 36.3126 25.2919C36.3126 25.7694 35.9262 26.1557 35.4487 26.1557Z" fill="#34353B"/>
<path d="M17.3319 30.475C14.9504 30.475 13.0127 28.5373 13.0127 26.1557C13.0127 23.7742 14.9504 21.8365 17.3319 21.8365C19.7134 21.8365 21.6511 23.7742 21.6511 26.1557C21.6511 28.5373 19.7134 30.475 17.3319 30.475ZM17.3319 23.5642C15.9029 23.5642 14.7404 24.7267 14.7404 26.1557C14.7404 27.5848 15.9029 28.7473 17.3319 28.7473C18.7609 28.7473 19.9235 27.5848 19.9235 26.1557C19.9235 24.7267 18.7609 23.5642 17.3319 23.5642Z" fill="#34353B"/>
<path d="M27.6981 30.475C25.3166 30.475 23.3789 28.5373 23.3789 26.1557C23.3789 23.7742 25.3166 21.8365 27.6981 21.8365C30.0796 21.8365 32.0174 23.7742 32.0174 26.1557C32.0174 28.5373 30.0796 30.475 27.6981 30.475ZM27.6981 23.5642C26.2691 23.5642 25.1066 24.7267 25.1066 26.1557C25.1066 27.5848 26.2691 28.7473 27.6981 28.7473C29.1271 28.7473 30.2897 27.5848 30.2897 26.1557C30.2897 24.7267 29.1271 23.5642 27.6981 23.5642Z" fill="#34353B"/>
</g>
</svg>
