<svg width="126" height="32" viewBox="0 0 126 32" fill="none" xmlns="http://www.w3.org/2000/svg">
<path d="M47.8047 23H46.0234L44.1172 16.0078C43.9922 15.5703 43.8099 14.7865 43.5703 13.6562C43.4349 14.2604 43.3203 14.7656 43.2266 15.1719C43.1328 15.5781 42.4219 18.1875 41.0938 23H39.3125L36.0703 11.9922H37.625L39.6016 18.9844C39.8359 19.8594 40.0521 20.7604 40.25 21.6875C40.375 21.1146 40.5182 20.4896 40.6797 19.8125C40.8464 19.1354 41.5703 16.5286 42.8516 11.9922H44.2812L46.1953 18.8438C46.487 19.9635 46.7161 20.9115 46.8828 21.6875L46.9531 21.4141C47.0938 20.8151 47.2083 20.3281 47.2969 19.9531C47.3854 19.5729 48.1172 16.9193 49.4922 11.9922H51.0469L47.8047 23ZM53.5859 15.9922C53.888 15.4401 54.25 15.0365 54.6719 14.7812C55.099 14.5208 55.638 14.3906 56.2891 14.3906C57.2057 14.3906 57.8802 14.6198 58.3125 15.0781C58.75 15.5312 58.9688 16.2943 58.9688 17.3672V23H57.5547V17.6406C57.5547 17.0469 57.5 16.6068 57.3906 16.3203C57.2812 16.0286 57.1016 15.8151 56.8516 15.6797C56.6016 15.5443 56.2552 15.4766 55.8125 15.4766C55.151 15.4766 54.6198 15.7057 54.2188 16.1641C53.8229 16.6224 53.625 17.2396 53.625 18.0156V23H52.2188V11.4062H53.625V14.4219C53.625 14.7396 53.6146 15.0677 53.5938 15.4062C53.5781 15.7448 53.5677 15.9401 53.5625 15.9922H53.5859ZM63.25 23.1562C62.401 23.1562 61.763 22.9323 61.3359 22.4844C60.9089 22.0365 60.6953 21.4219 60.6953 20.6406C60.6953 19.7656 60.9818 19.0938 61.5547 18.625C62.1328 18.1562 63.0625 17.9062 64.3438 17.875L66.2422 17.8438V17.3828C66.2422 16.6953 66.0964 16.2031 65.8047 15.9062C65.513 15.6094 65.0547 15.4609 64.4297 15.4609C63.7995 15.4609 63.3411 15.5677 63.0547 15.7812C62.7682 15.9948 62.5964 16.3359 62.5391 16.8047L61.0703 16.6719C61.3099 15.151 62.4401 14.3906 64.4609 14.3906C65.5234 14.3906 66.3229 14.6354 66.8594 15.125C67.3958 15.6094 67.6641 16.3125 67.6641 17.2344V20.875C67.6641 21.2917 67.7188 21.6068 67.8281 21.8203C67.9375 22.0286 68.1458 22.1328 68.4531 22.1328C68.5885 22.1328 68.7422 22.1146 68.9141 22.0781V22.9531C68.5599 23.0365 68.1979 23.0781 67.8281 23.0781C67.3073 23.0781 66.9271 22.9427 66.6875 22.6719C66.4531 22.3958 66.3203 21.9661 66.2891 21.3828H66.2422C65.8828 22.0286 65.4635 22.487 64.9844 22.7578C64.5104 23.0234 63.9323 23.1562 63.25 23.1562ZM63.5703 22.1016C64.0859 22.1016 64.5443 21.9844 64.9453 21.75C65.3464 21.5156 65.6615 21.1953 65.8906 20.7891C66.125 20.3776 66.2422 19.9557 66.2422 19.5234V18.8281L64.7031 18.8594C64.0417 18.8698 63.5391 18.9375 63.1953 19.0625C62.8568 19.1875 62.5964 19.3802 62.4141 19.6406C62.2318 19.901 62.1406 20.2422 62.1406 20.6641C62.1406 21.1224 62.263 21.4766 62.5078 21.7266C62.7578 21.9766 63.112 22.1016 63.5703 22.1016ZM73.25 22.9375C72.7865 23.0625 72.3125 23.125 71.8281 23.125C70.7031 23.125 70.1406 22.487 70.1406 21.2109V15.5703H69.1641V14.5469H70.1953L70.6094 12.6562H71.5469V14.5469H73.1094V15.5703H71.5469V20.9062C71.5469 21.3125 71.612 21.599 71.7422 21.7656C71.8776 21.9271 72.1094 22.0078 72.4375 22.0078C72.625 22.0078 72.8958 21.9714 73.25 21.8984V22.9375ZM80.7969 20.6641C80.7969 21.4609 80.4948 22.0755 79.8906 22.5078C79.2917 22.9401 78.4505 23.1562 77.3672 23.1562C76.3151 23.1562 75.5026 22.9844 74.9297 22.6406C74.362 22.2917 73.9922 21.75 73.8203 21.0156L75.0625 20.7734C75.1823 21.2266 75.4297 21.5599 75.8047 21.7734C76.1797 21.9818 76.7005 22.0859 77.3672 22.0859C78.0807 22.0859 78.6016 21.9766 78.9297 21.7578C79.263 21.5391 79.4297 21.2109 79.4297 20.7734C79.4297 20.4401 79.3151 20.1693 79.0859 19.9609C78.8568 19.7526 78.487 19.5807 77.9766 19.4453L76.9688 19.1797C76.1615 18.9714 75.5859 18.7682 75.2422 18.5703C74.9036 18.3672 74.638 18.1224 74.4453 17.8359C74.2526 17.5495 74.1562 17.1979 74.1562 16.7812C74.1562 16.0104 74.4297 15.4245 74.9766 15.0234C75.5286 14.6172 76.3307 14.4141 77.3828 14.4141C78.3151 14.4141 79.0547 14.5781 79.6016 14.9062C80.1536 15.2344 80.5026 15.7604 80.6484 16.4844L79.3828 16.6406C79.3047 16.2656 79.0938 15.9792 78.75 15.7812C78.4115 15.5781 77.9557 15.4766 77.3828 15.4766C76.7474 15.4766 76.2786 15.5729 75.9766 15.7656C75.6745 15.9583 75.5234 16.25 75.5234 16.6406C75.5234 16.8802 75.5859 17.0781 75.7109 17.2344C75.8359 17.3906 76.0208 17.5234 76.2656 17.6328C76.5104 17.7422 77.026 17.8932 77.8125 18.0859C78.5573 18.2734 79.0938 18.4479 79.4219 18.6094C79.75 18.7656 80.0078 18.9401 80.1953 19.1328C80.388 19.3255 80.5365 19.5495 80.6406 19.8047C80.7448 20.0547 80.7969 20.3411 80.7969 20.6641ZM90.4922 23L89.2344 19.7812H84.2188L82.9531 23H81.4062L85.8984 11.9922H87.5938L92.0156 23H90.4922ZM86.7266 13.1172L86.6562 13.3359C86.526 13.7682 86.3333 14.3229 86.0781 15L84.6719 18.6172H88.7891L87.375 14.9844C87.2292 14.625 87.0833 14.2188 86.9375 13.7656L86.7266 13.1172ZM100.273 18.7344C100.273 21.6823 99.237 23.1562 97.1641 23.1562C95.862 23.1562 94.987 22.6667 94.5391 21.6875H94.5C94.5208 21.7292 94.5312 22.1719 94.5312 23.0156V26.3203H93.125V16.2734C93.125 15.4036 93.1094 14.8281 93.0781 14.5469H94.4375C94.4427 14.5677 94.4505 14.6432 94.4609 14.7734C94.4714 14.8984 94.4818 15.0938 94.4922 15.3594C94.5078 15.625 94.5156 15.8073 94.5156 15.9062H94.5469C94.7969 15.3854 95.1276 15.0052 95.5391 14.7656C95.9505 14.5208 96.4922 14.3984 97.1641 14.3984C98.2057 14.3984 98.9844 14.7474 99.5 15.4453C100.016 16.1432 100.273 17.2396 100.273 18.7344ZM98.7969 18.7656C98.7969 17.5885 98.638 16.7474 98.3203 16.2422C98.0026 15.737 97.4974 15.4844 96.8047 15.4844C96.2474 15.4844 95.8099 15.6016 95.4922 15.8359C95.1797 16.0703 94.9401 16.4375 94.7734 16.9375C94.612 17.4323 94.5312 18.0781 94.5312 18.875C94.5312 19.9844 94.7083 20.8021 95.0625 21.3281C95.4167 21.8542 95.9922 22.1172 96.7891 22.1172C97.487 22.1172 97.9948 21.862 98.3125 21.3516C98.6354 20.8359 98.7969 19.974 98.7969 18.7656ZM109.18 18.7344C109.18 21.6823 108.143 23.1562 106.07 23.1562C104.768 23.1562 103.893 22.6667 103.445 21.6875H103.406C103.427 21.7292 103.438 22.1719 103.438 23.0156V26.3203H102.031V16.2734C102.031 15.4036 102.016 14.8281 101.984 14.5469H103.344C103.349 14.5677 103.357 14.6432 103.367 14.7734C103.378 14.8984 103.388 15.0938 103.398 15.3594C103.414 15.625 103.422 15.8073 103.422 15.9062H103.453C103.703 15.3854 104.034 15.0052 104.445 14.7656C104.857 14.5208 105.398 14.3984 106.07 14.3984C107.112 14.3984 107.891 14.7474 108.406 15.4453C108.922 16.1432 109.18 17.2396 109.18 18.7344ZM107.703 18.7656C107.703 17.5885 107.544 16.7474 107.227 16.2422C106.909 15.737 106.404 15.4844 105.711 15.4844C105.154 15.4844 104.716 15.6016 104.398 15.8359C104.086 16.0703 103.846 16.4375 103.68 16.9375C103.518 17.4323 103.438 18.0781 103.438 18.875C103.438 19.9844 103.615 20.8021 103.969 21.3281C104.323 21.8542 104.898 22.1172 105.695 22.1172C106.393 22.1172 106.901 21.862 107.219 21.3516C107.542 20.8359 107.703 19.974 107.703 18.7656Z" fill="#00E676"/>
<path d="M8.77939 26.9128L9.2717 27.159C11.323 28.3898 13.6204 28.9641 15.9178 28.9641C23.1384 28.9641 29.0461 23.0564 29.0461 15.8359C29.0461 12.3898 27.6512 9.02565 25.1896 6.56411C22.7281 4.10257 19.4461 2.7077 15.9178 2.7077C8.69734 2.7077 2.78964 8.6154 2.87169 15.918C2.87169 18.3795 3.61016 20.759 4.84093 22.8103L5.16913 23.3026L3.85631 28.1436L8.77939 26.9128Z" fill="#00E676"/>
<path d="M26.5847 5.2513C23.7949 2.3795 19.9385 0.820526 16 0.820526C7.63081 0.820526 0.902608 7.63078 0.984659 15.918C0.984659 18.5436 1.72312 21.0872 2.95389 23.3846L0.820557 31.1795L8.77953 29.1282C10.9949 30.359 13.4565 30.9334 15.918 30.9334C24.2052 30.9334 30.9334 24.1231 30.9334 15.8359C30.9334 11.8154 29.3744 8.04104 26.5847 5.2513ZM16 28.3898C13.7847 28.3898 11.5693 27.8154 9.6821 26.6667L9.18979 26.4205L4.43081 27.6513L5.66158 22.9744L5.33338 22.4821C1.72312 16.6564 3.4462 8.94361 9.35389 5.33335C15.2616 1.72309 22.8924 3.44617 26.5026 9.35386C30.1129 15.2616 28.3898 22.8923 22.4821 26.5026C20.5949 27.7334 18.2975 28.3898 16 28.3898ZM23.2206 19.2821L22.318 18.8718C22.318 18.8718 21.0052 18.2975 20.1847 17.8872C20.1026 17.8872 20.0206 17.8051 19.9385 17.8051C19.6924 17.8051 19.5283 17.8872 19.3641 17.9692C19.3641 17.9692 19.2821 18.0513 18.1334 19.3641C18.0513 19.5282 17.8872 19.6103 17.7231 19.6103H17.6411C17.559 19.6103 17.3949 19.5282 17.3129 19.4462L16.9026 19.2821C16 18.8718 15.1795 18.3795 14.5231 17.7231C14.359 17.559 14.1129 17.3949 13.9488 17.2308C13.3744 16.6564 12.8 16 12.3898 15.2616L12.3077 15.0975C12.2257 15.0154 12.2257 14.9333 12.1436 14.7692C12.1436 14.6051 12.1436 14.441 12.2257 14.359C12.2257 14.359 12.5539 13.9487 12.8 13.7026C12.9641 13.5385 13.0462 13.2923 13.2103 13.1282C13.3744 12.8821 13.4565 12.5539 13.3744 12.3077C13.2924 11.8975 12.3077 9.68207 12.0616 9.18976C11.8975 8.9436 11.7334 8.86155 11.4872 8.7795H11.2411C11.077 8.7795 10.8308 8.7795 10.5847 8.7795C10.4206 8.7795 10.2565 8.86155 10.0924 8.86155L10.0103 8.9436C9.8462 9.02566 9.6821 9.18976 9.51799 9.27181C9.35389 9.43591 9.27184 9.60002 9.10774 9.76412C8.53338 10.5026 8.20517 11.4051 8.20517 12.3077C8.20517 12.9641 8.36928 13.6205 8.61543 14.1949L8.69748 14.441C9.43594 16 10.4206 17.3949 11.7334 18.6257L12.0616 18.9539C12.3077 19.2 12.5539 19.3641 12.718 19.6103C14.4411 21.0872 16.4103 22.1539 18.6257 22.7282C18.8718 22.8103 19.2 22.8103 19.4462 22.8923C19.6924 22.8923 20.0206 22.8923 20.2667 22.8923C20.677 22.8923 21.1693 22.7282 21.4975 22.5641C21.7436 22.4 21.9077 22.4 22.0718 22.2359L22.2359 22.0718C22.4 21.9077 22.5641 21.8257 22.7283 21.6616C22.8924 21.4975 23.0565 21.3334 23.1385 21.1692C23.3026 20.841 23.3847 20.4308 23.4667 20.0205C23.4667 19.8564 23.4667 19.6103 23.4667 19.4462C23.4667 19.4462 23.3847 19.3641 23.2206 19.2821Z" fill="white"/>
</svg>
